<svg width="16" height="16" viewBox="0 0 16 16" fill="none" xmlns="http://www.w3.org/2000/svg">
<path fill-rule="evenodd" clip-rule="evenodd" d="M6.4364 5.94244H8.76488V7.10229C9.1003 6.43522 9.96047 5.83586 11.2526 5.83586C13.7297 5.83586 14.3177 7.16373 14.3177 9.60005V14.1122H11.81V10.1549C11.81 8.76746 11.4745 7.98503 10.6206 7.98503C9.43634 7.98503 8.94419 8.82827 8.94419 10.1543V14.1122H6.4364V5.94244ZM2.13617 14.0056H4.64396V5.83586H2.13617V14.0056ZM5.0032 3.17196C5.00329 3.38216 4.9616 3.59028 4.88056 3.78423C4.79951 3.97817 4.68073 4.15408 4.53111 4.30172C4.22791 4.60304 3.81752 4.77171 3.39006 4.77067C2.96336 4.77039 2.55391 4.60215 2.25027 4.30234C2.10119 4.1542 1.98281 3.9781 1.90191 3.78413C1.821 3.59016 1.77917 3.38213 1.77881 3.17196C1.77881 2.74751 1.94808 2.34125 2.2509 2.04157C2.55427 1.74136 2.96389 1.57305 3.39069 1.57324C3.81827 1.57324 4.22829 1.74189 4.53111 2.04157C4.83329 2.34125 5.0032 2.74751 5.0032 3.17196Z" fill="#13395B"/>
</svg>
