<svg width="15" height="12" viewBox="0 0 15 12" fill="none" xmlns="http://www.w3.org/2000/svg">
<path d="M14.1307 1.91352C13.6421 2.13003 13.1172 2.27632 12.5654 2.34244C13.1347 2.00176 13.5607 1.46557 13.7638 0.833919C13.2289 1.15165 12.6434 1.3753 12.0329 1.49514C11.6223 1.05678 11.0786 0.766233 10.486 0.668599C9.89335 0.570965 9.28509 0.671711 8.75561 0.955193C8.22613 1.23868 7.80506 1.68904 7.55776 2.23635C7.31046 2.78367 7.25078 3.39732 7.38798 3.98203C6.3041 3.92761 5.24377 3.64589 4.27581 3.15516C3.30785 2.66442 2.45389 1.97564 1.76936 1.13352C1.5353 1.53727 1.40072 2.00539 1.40072 2.50394C1.40046 2.95275 1.51098 3.39468 1.72248 3.79053C1.93398 4.18638 2.23992 4.5239 2.61315 4.77315C2.1803 4.75938 1.757 4.64242 1.37848 4.43201V4.46712C1.37844 5.09659 1.59618 5.70669 1.99475 6.1939C2.39333 6.6811 2.94819 7.01541 3.56519 7.14009C3.16365 7.24876 2.74266 7.26477 2.33403 7.1869C2.50811 7.72852 2.84721 8.20215 3.30384 8.54148C3.76048 8.88081 4.31179 9.06885 4.88061 9.07928C3.91501 9.83729 2.72251 10.2485 1.49493 10.2467C1.27747 10.2467 1.0602 10.234 0.844238 10.2086C2.0903 11.0098 3.54081 11.435 5.02221 11.4333C10.037 11.4333 12.7784 7.27994 12.7784 3.67775C12.7784 3.56072 12.7755 3.44252 12.7702 3.32549C13.3034 2.93986 13.7637 2.46233 14.1295 1.91528L14.1307 1.91352Z" fill="#13395B"/>
</svg>
