<svg width="13" height="13" viewBox="0 0 13 13" fill="none" xmlns="http://www.w3.org/2000/svg">
<path d="M11.1491 3.6688C9.40368 0.977938 5.84011 0.177954 3.07653 1.85065C0.38567 3.52334 -0.48704 7.15964 1.25838 9.85049L1.40383 10.0687L0.822025 12.2504L3.0038 11.6686L3.22198 11.8141C4.16741 12.3232 5.18558 12.6141 6.20374 12.6141C7.29463 12.6141 8.38552 12.3232 9.33095 11.7414C12.0218 9.99594 12.8218 6.43238 11.1491 3.6688ZM9.62185 9.26869C9.33095 9.70504 8.96732 9.99595 8.45824 10.0687C8.16734 10.0687 7.80371 10.2141 6.34919 9.63232C5.11285 9.05051 4.09469 8.10507 3.36743 7.01419C2.93108 6.5051 2.7129 5.85057 2.64017 5.19604C2.64017 4.61423 2.85835 4.10515 3.22198 3.74152C3.36743 3.59607 3.51288 3.52334 3.65833 3.52334H4.02196C4.16741 3.52334 4.31287 3.52334 4.38559 3.81425C4.53104 4.17788 4.89467 5.05059 4.89467 5.12331C4.9674 5.19604 4.9674 5.34149 4.89467 5.41422C4.9674 5.55967 4.89467 5.70512 4.82195 5.77785C4.74922 5.85057 4.6765 5.99602 4.60377 6.06875C4.45832 6.14147 4.38559 6.28693 4.45832 6.43238C4.74922 6.86873 5.11285 7.30509 5.47648 7.66872C5.91284 8.03235 6.34919 8.32325 6.85827 8.54143C7.00372 8.61415 7.14918 8.61415 7.2219 8.4687C7.29463 8.32325 7.65826 7.95962 7.80371 7.81417C7.94916 7.66872 8.02189 7.66872 8.16734 7.74144L9.33095 8.32325C9.4764 8.39598 9.62185 8.4687 9.69458 8.54143C9.76731 8.75961 9.76731 9.05051 9.62185 9.26869Z" fill="#13395B"/>
</svg>
