<svg width="2240" height="160" viewBox="0 0 2240 160" fill="none" xmlns="http://www.w3.org/2000/svg">
<path d="M2240 34.3938L2191.58 24.2718C2115.24 8.31375 2036.23 10.4513 1960.87 30.5134L1923.67 40.4154C1856.51 58.2958 1785.64 56.7253 1719.33 35.8868C1652.04 14.7388 1580.08 13.4418 1512.07 32.151L1462.12 45.8898C1409.41 60.3909 1354.67 66.1482 1300.09 62.9324L1212.53 57.7732C1181.25 55.9298 1150.2 51.149 1119.81 43.494L1085.32 34.8058C1003.76 14.2615 918.334 14.6243 836.95 35.8604L800 45.502V154.516L2240 159.002V34.3938Z" fill="url(#paint0_linear_1323_259)" fill-opacity="0.5"/>
<path d="M-640 34.3938L-591.581 24.2718C-515.244 8.31375 -436.232 10.4513 -360.87 30.5134L-323.673 40.4154C-256.507 58.2958 -185.642 56.7253 -119.334 35.8868C-52.041 14.7388 19.9227 13.4418 87.9343 32.151L137.877 45.8898C190.591 60.3909 245.327 66.1482 299.905 62.9324L387.468 57.7732C418.753 55.9298 449.796 51.149 480.187 43.494L514.679 34.8058C596.241 14.2615 681.666 14.6243 763.05 35.8604L800 45.502V154.516L-640 159.002V34.3938Z" fill="url(#paint1_linear_1323_259)" fill-opacity="0.5"/>
<defs>
<linearGradient id="paint0_linear_1323_259" x1="2315.55" y1="78.2559" x2="491.286" y2="78.2559" gradientUnits="userSpaceOnUse">
<stop stop-color="#0052D4"/>
<stop offset="0.5" stop-color="#4364F7"/>
<stop offset="1" stop-color="#6FB1FC"/>
</linearGradient>
<linearGradient id="paint1_linear_1323_259" x1="-715.552" y1="78.2559" x2="1108.71" y2="78.2559" gradientUnits="userSpaceOnUse">
<stop stop-color="#0052D4"/>
<stop offset="0.5" stop-color="#4364F7"/>
<stop offset="1" stop-color="#6FB1FC"/>
</linearGradient>
</defs>
</svg>
